<svg width="271" height="271" viewBox="0 0 271 271" fill="none" xmlns="http://www.w3.org/2000/svg">
<path d="M85.2192 117C84.6892 117 84.1592 116.93 83.6292 116.78C80.4292 115.9 78.5492 112.6 79.4292 109.41C84.1792 92.0801 102.519 37.9201 123.719 17.1101C133.119 7.88009 146.069 3.43009 157.509 5.50009C171.439 8.03009 181.969 21.1101 180.489 34.0801C179.439 43.3201 172.949 51.7601 162.229 57.8501C158.939 59.7201 155.549 61.2701 152.279 62.7701C147.859 64.7901 143.689 66.7001 140.039 69.2301C135.319 72.5001 130.149 78.5001 131.099 84.6701C131.719 88.7001 135.179 92.6201 139.919 94.6401C144.229 96.4801 149.569 97.0701 156.729 96.4901C162.279 96.0401 167.859 95.0101 173.299 93.4401C176.479 92.5201 179.809 94.3501 180.729 97.5301C181.649 100.71 179.819 104.04 176.639 104.96C170.419 106.76 164.049 107.94 157.689 108.45C148.509 109.19 141.369 108.31 135.199 105.67C126.599 102 120.489 94.6501 119.229 86.4901C117.439 74.8601 125.269 64.8501 133.199 59.3601C137.729 56.2201 142.589 54.0001 147.279 51.8501C150.459 50.4001 153.459 49.0201 156.289 47.4101C159.699 45.4701 167.709 40.1701 168.559 32.7101C169.389 25.4101 162.279 18.5501 155.359 17.3001C147.699 15.9101 138.789 19.1201 132.119 25.6701C122.299 35.3201 103.039 68.6601 90.9992 112.58C90.2692 115.24 87.8492 117 85.2192 117Z" fill="#00A240"/>
<path d="M210.829 59.0701C207.909 59.0701 204.369 60.0401 201.409 61.7401C193.619 66.2201 187.379 73.1701 182.859 82.4101C181.609 84.9701 180.759 87.9601 180.459 91.0301C192.319 86.4501 202.989 79.3401 211.639 70.2201C215.099 66.5701 216.849 62.8301 215.879 61.1201C215.579 60.5801 214.989 59.8201 213.409 59.3901C212.639 59.1801 211.759 59.0801 210.819 59.0801M235.679 157.54C218.249 157.54 201.099 150.76 188.459 138.58C186.069 136.28 185.999 132.48 188.299 130.1C190.599 127.71 194.399 127.64 196.779 129.94C208.799 141.52 226.539 147.3 243.069 145.04C245.989 144.64 255.729 142.84 258.229 136.47C259.159 134.12 258.899 131.55 257.459 128.85C255.169 124.53 250.309 120.89 245.369 119.78C237.819 118.09 229.719 119.65 221.149 121.3C218.749 121.76 216.269 122.24 213.799 122.65C197.289 125.34 184.339 122.44 176.349 114.26C172.829 110.65 170.429 106.04 169.229 100.99C169.219 100.96 169.209 100.92 169.199 100.89C169.119 100.61 169.059 100.32 169.019 100.03C167.509 92.7001 168.459 84.5201 172.069 77.1401C177.659 65.7201 185.519 57.0401 195.419 51.3501C200.729 48.3001 209.079 45.7701 216.579 47.8201C220.879 49.0001 224.249 51.5601 226.319 55.2201C230.129 61.9701 227.949 70.4501 220.339 78.4801C209.969 89.4201 197.069 97.8101 182.749 102.99C183.349 104.03 184.079 104.99 184.939 105.87C191.439 112.52 203.169 112.23 211.869 110.8C214.169 110.42 216.449 109.98 218.869 109.52C228.279 107.7 237.999 105.83 247.989 108.07C256.409 109.96 264.099 115.77 268.049 123.23C271.109 129 271.579 135.27 269.379 140.87C266.029 149.39 257.029 155.25 244.679 156.94C241.679 157.35 238.659 157.55 235.659 157.55" fill="#00A2EA"/>
<path d="M199.979 251.45C193.909 251.45 188.329 249.25 184.319 245.19C174.319 235.07 177.189 219.76 179.279 208.59C180.339 202.94 182.009 189.36 174.629 185.37C171.809 183.85 167.769 184.04 164.069 185.88C160.679 187.57 157.409 190.54 153.789 195.22C149.379 200.93 145.779 207.27 143.089 214.07C141.869 217.15 138.379 218.66 135.299 217.44C132.219 216.22 130.709 212.73 131.929 209.65C135.039 201.81 139.189 194.49 144.289 187.88C147.289 183.99 152.049 178.44 158.719 175.12C165.959 171.52 174.039 171.4 180.319 174.8C190.559 180.33 194.379 193.12 191.059 210.79C189.359 219.83 187.249 231.09 192.839 236.74C195.699 239.63 199.679 239.59 201.799 239.31C206.829 238.64 211.589 235.57 213.909 231.47C219.959 220.79 214.839 207.46 212.359 202.22C209.559 196.32 205.899 190.87 202.029 185.09C199.169 180.83 196.219 176.43 193.599 171.79C185.579 157.52 183.249 143.91 186.879 132.43C187.879 129.27 191.249 127.52 194.409 128.52C197.569 129.52 199.319 132.89 198.319 136.05C195.029 146.46 199.619 158.03 204.049 165.91C206.429 170.14 209.129 174.15 211.979 178.41C215.929 184.29 220.009 190.38 223.189 197.08C230.129 211.73 230.549 226.42 224.339 237.38C220.169 244.74 212.129 250.04 203.369 251.2C202.219 251.35 201.079 251.43 199.949 251.43" fill="#F6B403"/>
<path d="M141.789 217.61C139.979 222.91 138.749 228.36 138.119 233.87C137.439 239.86 137.779 244.24 139.199 247.65C140.679 251.21 143.759 253.82 146.679 253.99C149.259 254.16 152.259 252.42 154.119 249.7C155.989 246.98 157.039 243.2 157.239 238.48C157.579 230.58 155.139 223.84 150.709 220.47C148.109 218.49 144.969 217.67 141.779 217.6M147.019 266C146.669 266 146.319 265.99 145.969 265.97C138.409 265.52 131.409 260.14 128.129 252.26C125.189 245.19 125.619 237.6 126.199 232.51C126.629 228.72 127.309 224.96 128.229 221.24C122.799 224.22 117.969 228.51 112.889 233.01C111.649 234.11 110.409 235.21 109.159 236.29C100.359 243.9 88.3992 252.69 73.9992 253.18C65.5792 253.44 56.6892 249.86 50.7892 243.77C45.9092 238.73 43.4492 232.44 43.8592 226.03C44.3292 218.73 48.1692 212.23 54.9592 207.24C60.3092 203.31 67.2692 200.52 74.5592 199.4C78.6492 198.77 82.7692 198.49 86.7492 198.21C94.5392 197.68 101.899 197.17 108.179 194.19C111.169 192.77 114.749 194.05 116.169 197.05C117.589 200.04 116.309 203.62 113.319 205.04C104.989 208.99 96.1292 209.59 87.5692 210.18C83.6692 210.45 79.9792 210.7 76.3892 211.25C66.5792 212.76 56.3592 218.58 55.8392 226.79C55.5892 230.61 57.6492 233.59 59.4092 235.4C62.9692 239.08 68.5592 241.36 73.6092 241.17C84.2592 240.81 94.0192 233.52 101.319 227.2C102.529 226.15 103.739 225.09 104.939 224.02C110.999 218.65 117.269 213.09 125.039 209.39C139.089 202.7 151.279 205.79 157.999 210.91C165.659 216.75 169.759 226.98 169.249 238.98C168.949 245.98 167.199 251.87 164.029 256.48C159.959 262.41 153.519 265.99 147.019 265.99" fill="#00A2EA"/>
<path d="M80.9892 206.29C66.3292 206.29 51.6592 205.81 37.1092 204.86C30.0792 204.4 23.2392 203.77 16.7392 201.07C8.53919 197.67 2.51919 191.25 0.639186 183.9C-0.860814 178.04 0.299186 171.76 3.90919 166.23C8.25919 159.56 15.8292 154.62 23.6492 153.33C36.7992 151.16 49.4392 156.87 58.9692 162.09C66.3992 166.16 73.8692 169.5 78.1492 166.48C80.9792 164.48 82.7292 157.49 77.7492 148.2C74.2992 141.75 69.6392 135.96 63.8992 130.99C61.3992 128.82 61.1292 125.03 63.2992 122.53C65.4692 120.03 69.2592 119.76 71.7592 121.93C78.5992 127.86 84.1792 134.8 88.3292 142.54C94.2192 153.54 95.7092 168.79 85.0692 176.29C74.0792 184.04 60.5092 176.61 53.2092 172.62C45.3692 168.33 35.1392 163.6 25.5992 165.17C21.0592 165.92 16.4892 168.91 13.9592 172.79C12.7192 174.68 11.4292 177.63 12.2692 180.92C13.2092 184.58 16.6892 188.05 21.3392 189.98C26.1492 191.98 31.6892 192.47 37.8992 192.88C61.9492 194.45 86.3692 194.7 110.469 193.62C113.789 193.48 116.579 196.04 116.729 199.35C116.879 202.66 114.309 205.46 110.999 205.61C101.039 206.06 91.0192 206.28 80.9892 206.28" fill="#E7383D"/>
<path d="M28.6392 115.95C24.1492 115.95 19.2392 117.47 17.7392 120.43C17.2292 121.44 16.6992 123.77 17.9692 126.09C19.9892 129.76 25.7292 132.22 34.1392 133.03C39.7892 133.58 47.1992 132.72 53.0092 130.86C55.4392 130.08 57.6092 128.88 59.3592 127.41C50.8592 121.3 40.9392 117.33 30.9092 116.09C30.1792 116 29.4192 115.96 28.6492 115.96M37.6892 145.18C36.0692 145.18 34.4892 145.11 32.9892 144.97C16.9992 143.43 10.2792 137 7.45919 131.87C4.01919 125.61 4.97919 119.06 7.03919 115.01C11.6092 105.98 23.3792 103.06 32.3792 104.18C43.3192 105.53 54.1192 109.57 63.5992 115.78C62.7992 111.68 60.2692 107.66 57.5792 104.72C54.6392 101.52 51.1292 98.76 47.4092 95.84C44.5792 93.62 41.6492 91.32 38.8892 88.74C30.1392 80.56 25.6992 71.11 26.3792 62.12C26.9292 54.92 30.8092 48.44 37.3092 43.87C44.6692 38.7 54.3792 36.91 62.6392 39.2C73.1392 42.11 86.0592 52.08 90.7992 71.33C94.1592 84.96 92.5692 99.15 91.1792 111.67C90.8092 114.96 87.8392 117.33 84.5492 116.97C81.2592 116.6 78.8792 113.63 79.2492 110.34C80.5992 98.25 81.9992 85.76 79.1492 74.2C76.2592 62.48 68.5192 53.28 59.4392 50.76C54.5392 49.4 48.6992 50.53 44.2092 53.68C42.1792 55.11 38.7092 58.22 38.3492 63.02C37.8092 70.15 43.5892 76.7 47.0792 79.96C49.4692 82.19 52.0692 84.23 54.8192 86.39C58.7492 89.48 62.8192 92.67 66.4192 96.59C74.5492 105.45 77.6892 116.19 74.8092 125.31C74.3892 126.64 73.8392 127.93 73.1792 129.17C73.1292 129.28 73.0692 129.38 73.0092 129.49C69.7692 135.32 63.9292 139.95 56.6792 142.28C50.8492 144.15 43.9292 145.19 37.6992 145.19" fill="#00A2EA"/>
</svg>
