<svg width="120" height="120" viewBox="0 0 120 120" fill="none" xmlns="http://www.w3.org/2000/svg">
<mask id="path-1-inside-1_1_40" fill="white">
<path d="M117.967 95.6035C117.832 95.8758 117.697 96.1523 117.558 96.4288C115.104 101.045 112.638 105.661 110.162 110.277C110.113 110.368 110.068 110.463 110.01 110.549C109.933 110.678 109.826 110.786 109.699 110.865C109.571 110.943 109.427 110.989 109.278 110.999H10.9819C10.7856 111.007 10.5912 110.957 10.4227 110.855C10.2541 110.753 10.1186 110.604 10.0328 110.426C7.42831 105.636 4.81967 100.843 2.20695 96.045C2.07186 95.8341 2 95.5884 2 95.3373C2 95.0863 2.07186 94.8405 2.20695 94.6297C8.56149 83.5185 14.9038 72.4019 21.2337 61.2798C31.0001 44.1386 40.7637 26.9892 50.5246 9.83146C50.6541 9.5616 50.8621 9.33801 51.1209 9.19054C51.3796 9.04308 51.6768 8.97876 51.9728 9.00617C57.1273 9.03093 62.2778 9.00617 67.4323 9.00617H67.7391C67.9332 8.994 68.1266 9.0395 68.2953 9.13705C68.464 9.2346 68.6006 9.37991 68.6882 9.55499C69.04 10.174 69.3946 10.7902 69.7519 11.4036L100.025 63.8919C105.907 74.0924 111.794 84.2902 117.685 94.4852C117.804 94.6874 117.898 94.8979 118 95.1083L117.967 95.6035ZM115.345 96.3504H35.691C35.5469 96.3472 35.4053 96.3117 35.2764 96.2466C35.1475 96.1815 35.0346 96.0884 34.9457 95.9739C34.8569 95.8594 34.7944 95.7264 34.7626 95.5846C34.7309 95.4427 34.7308 95.2956 34.7624 95.1537C34.8114 94.9753 34.8843 94.8046 34.9792 94.6462C37.4992 90.2886 40.0233 85.9298 42.5514 81.5695L42.7151 81.2765L42.576 81.0537C40.4059 77.8082 39.1736 74.0178 39.0169 70.1063C38.9698 68.9505 39.0149 67.7927 39.1519 66.6442C39.3508 64.8988 39.7744 63.1871 40.4119 61.5522C41.6938 58.2647 43.7768 55.3563 46.4682 53.0959C49.1596 50.8355 52.3726 49.2961 55.8101 48.6199L56.2519 48.5209C55.941 47.8318 52.0178 40.9241 51.8419 40.7591C38.781 63.493 25.7146 86.2502 12.6428 109.031H108.12C108.182 109.025 108.243 109.025 108.305 109.031C108.525 109.068 108.632 108.953 108.714 108.771C110.865 104.733 113.02 100.697 115.177 96.664C115.243 96.5773 115.28 96.4865 115.345 96.3504V96.3504ZM10.9492 107.979L11.1497 107.649C13.6042 103.349 16.0683 99.0491 18.5419 94.7493C22.7528 87.418 26.9651 80.0854 31.1787 72.7513L50.9296 38.3657C50.9746 38.2873 51.0196 38.2048 51.0728 38.1264C51.1624 37.9902 51.2839 37.8785 51.4267 37.8012C51.5695 37.7239 51.729 37.6835 51.891 37.6835C52.053 37.6835 52.2125 37.7239 52.3553 37.8012C52.498 37.8785 52.6196 37.9902 52.7092 38.1264C52.7727 38.2202 52.8301 38.318 52.881 38.4194L58.2278 47.9597L58.4078 48.2609C63.5229 47.8995 68.5908 49.4507 72.6441 52.6184C76.7187 55.7552 79.52 60.2824 80.5238 65.3524C81.5276 70.4224 80.6649 75.6877 78.0973 80.1624H90.9141C77.7987 57.4312 64.6887 34.7083 51.5842 11.9937C51.4778 12.1753 51.4001 12.3073 51.3264 12.4394C36.4465 38.5597 21.5624 64.68 6.67422 90.8003C5.85604 92.2322 5.03785 93.6888 4.21967 95.1001C4.16392 95.1828 4.13411 95.2806 4.13411 95.3807C4.13411 95.4807 4.16392 95.5785 4.21967 95.6613C6.40149 99.6584 8.58331 103.66 10.7651 107.665C10.8183 107.752 10.8715 107.838 10.9492 107.979ZM73.7937 76.6178C72.8604 74.6811 71.6954 72.8671 70.3246 71.2163C68.6716 72.8529 66.8314 74.2852 64.8428 75.483L67.4937 81.3425C69.9155 80.1706 72.0919 78.7057 73.7937 76.6095V76.6178ZM66.3932 81.8088C65.526 79.8859 64.6587 77.9795 63.7832 76.0318C61.5915 77.089 59.2417 77.7736 56.8287 78.0579C57.2652 80.0649 57.8899 82.0255 58.6942 83.9133C60.6578 83.7441 65.2969 82.4567 66.3932 81.8006V81.8088ZM55.5073 69.5451C55.7243 72.0074 56.078 74.4554 56.5669 76.8777C58.8985 76.6279 61.1697 75.9732 63.2801 74.9424L60.0482 68.2576C58.5966 68.8826 57.0699 69.3127 55.5073 69.5368V69.5451ZM69.5391 70.2672C68.0152 68.4987 66.394 66.818 64.6832 65.2329C63.6122 66.2207 62.4186 67.064 61.1323 67.7418L64.3191 74.3441C65.3051 73.981 68.9173 71.1461 69.5391 70.2589V70.2672ZM57.3892 84.0247C57.0537 83.0509 56.706 82.1101 56.4114 81.1362C56.1169 80.1624 55.8673 79.1762 55.5932 78.2106C54.5173 78.1776 53.4455 78.1899 52.3778 78.0992C51.3101 78.0084 50.2628 77.8227 49.191 77.6865C49.191 77.897 49.191 78.1198 49.2196 78.3426C49.2646 79.007 49.2769 79.6796 49.3751 80.3398C49.5218 81.2456 49.7617 82.1334 50.091 82.989C50.1157 83.0552 50.1569 83.1139 50.2107 83.1595C50.2644 83.205 50.3289 83.2358 50.3978 83.249C51.3517 83.5221 52.3257 83.7181 53.3105 83.8349C54.051 83.9174 54.7955 83.9793 55.5401 84.0165C56.1619 84.0371 56.7755 84.0165 57.3892 84.0165V84.0247ZM50.0255 69.3222C49.5226 71.6413 49.2485 74.0049 49.2073 76.3784C49.2892 76.4032 49.3464 76.428 49.4037 76.4403C51.2826 76.8637 53.2065 77.0495 55.131 76.9933C55.2127 76.982 55.2935 76.9641 55.3723 76.9396C54.8978 74.5298 54.5542 72.1282 54.3333 69.6771C52.8862 69.7643 51.4342 69.642 50.0214 69.314L50.0255 69.3222ZM73.5482 64.3705C71.7679 62.9728 69.8271 61.7966 67.7678 60.8672C67.225 62.1609 66.4668 63.3513 65.526 64.387C67.2342 65.9803 68.8578 67.6635 70.39 69.4295C71.7348 67.9392 72.8031 66.2172 73.5441 64.3458L73.5482 64.3705ZM74.5014 65.2247C73.6795 67.1001 72.5588 68.8272 71.1837 70.3373C71.8055 71.1956 72.411 72.0085 73.0041 72.8627C73.5973 73.7169 74.0923 74.6123 74.6405 75.4954L74.7264 75.3798C75.9668 73.596 76.9656 71.6532 77.6964 69.6028C77.7216 69.5357 77.7314 69.4637 77.725 69.3923C77.7186 69.3208 77.6963 69.2517 77.6596 69.1902C76.9026 67.7831 75.9276 66.5071 74.7714 65.4104C74.6855 65.332 74.5996 65.2783 74.4973 65.1999L74.5014 65.2247ZM45.906 67.4117C45.8762 67.4414 45.8501 67.4747 45.8283 67.5107C45.7014 67.7666 45.5746 68.0265 45.456 68.2906C44.7156 69.8869 44.1953 71.578 43.9096 73.3166C43.8954 73.3917 43.9008 73.4691 43.9252 73.5415C43.9496 73.6138 43.9921 73.6785 44.0487 73.7293C45.1079 74.7858 46.4006 75.5735 47.8205 76.0277C47.8844 76.0347 47.9489 76.0347 48.0128 76.0277C48.0821 73.6677 48.3684 71.3194 48.8678 69.0128C47.799 68.6352 46.7975 68.0862 45.9019 67.3869L45.906 67.4117ZM68.3651 56.0269C68.3896 56.6706 68.451 57.2648 68.4264 57.8796C68.4019 58.4945 68.2791 59.1176 68.2014 59.7365C70.2272 60.6636 72.1475 61.8091 73.9287 63.1532C74.1381 62.3996 74.2617 61.6243 74.2969 60.8424C74.3283 59.9663 74.2941 59.089 74.1946 58.218C74.1903 58.1433 74.1659 58.0713 74.1241 58.0095C74.0823 57.9477 74.0247 57.8985 73.9573 57.8673C72.2518 57.0109 70.4375 56.3958 68.5655 56.0393C68.4988 56.0198 68.4302 56.0073 68.361 56.0021L68.3651 56.0269ZM66.8841 82.9601C64.4396 83.9614 61.8872 84.6705 59.2792 85.0728C59.316 85.1595 59.3323 85.2173 59.361 85.2709C59.8659 86.2389 60.4824 87.1434 61.1978 87.9655C61.2339 88.0091 61.2814 88.0415 61.335 88.059C61.3885 88.0766 61.4459 88.0785 61.5005 88.0645C62.0201 87.9696 62.5478 87.8953 63.0714 87.7922C64.7784 87.4616 66.4421 86.9341 68.0296 86.22C68.1089 86.183 68.1855 86.1403 68.2587 86.0921L66.8841 82.9601ZM67.9805 82.4773L69.3182 85.5804L69.4451 85.5309L69.6373 85.436C71.5143 84.397 73.2189 83.0688 74.6896 81.4993C74.768 81.4219 74.8184 81.3202 74.8328 81.2105V80.4471C74.7918 79.6552 74.6403 78.8731 74.3828 78.1239C74.3623 78.062 74.3296 78.0043 74.2887 77.9093C72.5029 79.8307 70.3575 81.3762 67.9764 82.4567L67.9805 82.4773ZM57.9742 85.2131C56.78 85.28 55.5828 85.2662 54.3905 85.1719C53.2151 85.072 52.0461 84.9067 50.8887 84.6767C51.0778 85.0354 51.2853 85.3839 51.5105 85.7207C52.0821 86.5915 52.814 87.3437 53.6664 87.9366C53.7995 88.0282 53.9524 88.0862 54.1123 88.1058C55.1392 88.2007 56.1578 88.3038 57.1969 88.341C58.0151 88.3699 58.8087 88.3121 59.6187 88.2873C59.6904 88.2749 59.7604 88.2541 59.8273 88.2254C59.098 87.286 58.475 86.2674 57.9701 85.1884L57.9742 85.2131ZM55.0737 61.1684C55.1146 63.5824 55.2046 65.9633 55.4092 68.336C56.391 68.2824 58.9314 67.5561 59.5001 67.1476L56.2682 60.8589L55.0737 61.1684ZM43.8237 75.1529L43.7419 75.19C43.7705 75.7223 43.791 76.2588 43.8278 76.7911C43.9114 77.807 44.1175 78.8089 44.4414 79.7745C44.5074 79.979 44.6311 80.1597 44.7974 80.2944C45.7722 81.1271 46.8554 81.8212 48.0169 82.3576C48.2296 82.4567 48.4505 82.5433 48.6714 82.6341L48.7205 82.5887C48.1069 80.8969 48.0455 79.1266 48.0005 77.3316C46.4689 76.9016 45.0443 76.1508 43.8196 75.1281L43.8237 75.1529ZM78.2282 67.8037C78.261 67.6964 78.2691 67.6593 78.2814 67.618C78.5771 66.4838 78.7715 65.3251 78.8623 64.1559C78.8823 63.9315 78.8629 63.7052 78.805 63.4875C78.5099 62.5234 78.1377 61.585 77.6923 60.6815C77.6375 60.5486 77.5552 60.429 77.4509 60.3307C76.8782 59.8521 76.2973 59.3817 75.7164 58.9154C75.6374 58.8626 75.5554 58.8143 75.471 58.7709C75.6362 60.5249 75.4569 62.2945 74.9432 63.9785C76.2193 65.0726 77.3252 66.3537 78.2241 67.779L78.2282 67.8037ZM54.2105 68.4268C54.2105 68.2989 54.1778 68.171 54.1696 68.0389C54.1246 67.3333 54.0755 66.6236 54.0346 65.9138C53.9937 65.2041 53.9528 64.4159 53.9283 63.6649C53.9283 63.0748 53.9283 62.4889 53.8996 61.8988C53.8996 61.676 53.8628 61.4573 53.8423 61.2303L53.2778 61.1643L52.7214 61.0859C51.7067 63.346 50.8962 65.6938 50.2996 68.1008C50.8478 68.3649 53.3883 68.6125 54.2105 68.4268V68.4268ZM59.1196 58.8576L64.671 63.5287C65.5464 62.6044 66.4996 61.0157 66.6428 60.3472C64.3865 59.3904 62.0617 58.6069 59.6882 58.0034L59.1196 58.8576ZM63.7791 64.4159C63.6962 64.3276 63.6088 64.2436 63.5173 64.1642C62.3964 63.1933 61.2686 62.2305 60.1341 61.2757C59.5614 60.7929 58.9682 60.339 58.3832 59.8686C58.3055 59.8067 58.2278 59.72 58.1132 59.7984L57.336 60.3472L60.5801 66.6566C61.7419 66.0589 62.818 65.3052 63.7791 64.4159V64.4159ZM67.0519 59.196C67.3403 58.0785 67.3403 56.9051 67.0519 55.7875C65.9064 55.4698 60.8337 55.3501 60.1669 55.6018V56.8728C62.5119 57.4871 64.8124 58.2633 67.0519 59.196V59.196ZM42.8337 72.1406H42.9074C43.1044 71.1548 43.3863 70.1883 43.7501 69.2521C44.1142 68.3278 44.5274 67.42 44.9283 66.4915C44.1639 65.6857 43.5733 64.7289 43.1937 63.6814C43.1691 63.7385 43.1404 63.7936 43.1078 63.8465C42.3896 64.707 41.7884 65.6604 41.3201 66.6813C41.2706 66.8128 41.2524 66.9541 41.2669 67.094C41.2669 67.3581 41.3324 67.6222 41.3692 67.8862C41.5375 69.134 41.9078 70.3455 42.4655 71.4721C42.5801 71.728 42.711 71.9384 42.8337 72.1406V72.1406ZM73.8469 56.3817C73.7282 56.0723 73.6341 55.7917 73.5155 55.5193C73.2444 54.8352 72.7931 54.2388 72.2105 53.7945C71.83 53.518 71.4619 53.225 71.0773 52.9692C70.925 52.8672 70.7634 52.7801 70.5946 52.7092C69.236 52.1564 67.7801 51.8882 66.3155 51.9211C66.2545 51.9279 66.1943 51.9403 66.1355 51.9582C66.8841 52.6958 67.4744 53.5807 67.8701 54.5579C67.9232 54.6858 68.0255 54.6982 68.1401 54.7188C69.3195 54.915 70.4821 55.2033 71.6173 55.5812C72.37 55.8247 73.0696 56.1094 73.8469 56.3983V56.3817ZM49.1378 67.7748C49.7514 65.334 50.5727 62.9511 51.5923 60.6526L50.9051 60.24C49.2057 62.0884 47.7131 64.1198 46.4542 66.2976C47.258 66.9459 48.1655 67.451 49.1378 67.7913V67.7748ZM75.1682 76.7663C75.571 77.767 75.8459 78.8153 75.9864 79.8859C76.0396 79.8529 76.0641 79.8446 76.0723 79.8323C76.1582 79.7291 76.2441 79.6218 76.3219 79.5187C77.1549 78.3836 77.9055 77.1894 78.5678 75.9452C78.8026 75.5237 78.9199 75.0461 78.9073 74.5628C78.9034 73.8519 78.8419 73.1426 78.7232 72.4418C78.6414 71.992 78.5269 71.5505 78.4205 71.0801C77.9173 72.0787 77.4469 73.0443 76.9437 73.9975C76.4169 74.9665 75.8236 75.8972 75.1682 76.7828V76.7663ZM45.5705 65.4228C46.8555 63.2434 48.3638 61.2062 50.0705 59.3445L49.8169 58.8906C49.8169 58.8659 49.7842 58.8411 49.7596 58.7998C47.6869 59.7689 45.7897 61.0814 44.1469 62.6828C44.3887 63.706 44.8778 64.653 45.5705 65.4393V65.4228ZM66.5119 54.4464C66.4926 54.3958 66.4708 54.3462 66.4464 54.2979C65.9838 53.483 65.3683 52.7668 64.6341 52.1893C64.5764 52.1454 64.5101 52.1143 64.4396 52.0979C64.3691 52.0816 64.296 52.0804 64.2251 52.0944C63.1388 52.2881 62.0731 52.5852 61.0423 52.9816C60.4614 53.2044 59.8969 53.4561 59.3037 53.7037C59.4387 53.9059 59.5573 54.0751 59.6678 54.2443C59.6944 54.282 59.7316 54.3109 59.7746 54.3271C59.8177 54.3433 59.8645 54.3461 59.9091 54.335C60.5596 54.302 61.2101 54.269 61.8646 54.2525C62.5192 54.236 63.0919 54.2525 63.7055 54.2525C64.2046 54.2525 64.6996 54.3062 65.1987 54.3392C65.6119 54.3969 66.0373 54.4258 66.5119 54.463V54.4464ZM40.461 69.4708H40.3833C40.3304 69.7615 40.2935 70.0549 40.2728 70.3497C40.2715 70.678 40.2906 71.006 40.3301 71.3318C40.4006 72.1519 40.5374 72.9647 40.7392 73.7623C41.1191 75.1889 41.7375 76.5398 42.5678 77.7567C42.6087 77.8186 42.6619 77.8681 42.7478 77.9712C42.7478 77.7938 42.7478 77.6824 42.7192 77.5586C42.666 76.9273 42.5924 76.2918 42.5678 75.6563C42.5678 75.1859 42.6005 74.7114 42.6169 74.2409C42.632 74.1551 42.63 74.0672 42.6111 73.9822C42.5921 73.8971 42.5565 73.8168 42.5064 73.7458C41.6683 72.6762 41.0406 71.4549 40.6574 70.1475C40.5755 69.9247 40.5183 69.6977 40.461 69.4708V69.4708ZM50.0542 55.3419C49.9911 55.3235 49.9269 55.3097 49.8619 55.3006C49.2769 55.2305 48.6878 55.1727 48.1028 55.0984C47.6247 55.0606 47.1437 55.0827 46.671 55.1644C46.6006 55.1732 46.5326 55.1963 46.4714 55.2325C46.4102 55.2687 46.357 55.3172 46.3151 55.3749C45.7545 56.0435 45.2714 56.7745 44.8751 57.5537C44.8445 57.6286 44.8199 57.7059 44.8014 57.7847C45.2555 57.5784 45.6687 57.3721 46.0901 57.1988C47.1879 56.749 48.3264 56.4077 49.4896 56.1796C49.5866 56.1688 49.6765 56.1234 49.7433 56.0516C49.8701 55.8288 49.9396 55.5895 50.046 55.3419H50.0542ZM54.1451 57.2896C54.5141 57.3075 54.8818 57.2329 55.2152 57.0723C55.5487 56.9117 55.8374 56.6702 56.0555 56.3694C56.1558 56.2533 56.2236 56.1125 56.252 55.9613C56.2804 55.8101 56.2684 55.6539 56.2171 55.509C56.1659 55.364 56.0773 55.2354 55.9605 55.1364C55.8436 55.0374 55.7027 54.9716 55.5523 54.9457C55.0268 54.7936 54.4632 54.8543 53.9814 55.1149C53.6089 55.2798 53.3061 55.5721 53.1264 55.9402C53.0632 56.0439 53.0235 56.1604 53.0102 56.2814C52.9968 56.4024 53.0102 56.5248 53.0493 56.64C53.0884 56.7551 53.1523 56.8602 53.2363 56.9475C53.3204 57.0348 53.4226 57.1023 53.5355 57.1451C53.7353 57.2058 53.939 57.2527 54.1451 57.2854V57.2896ZM50.8969 86.9999L50.946 86.9421C50.3318 86.1535 49.814 85.2931 49.4037 84.3796C49.3727 84.3005 49.3241 84.2296 49.2617 84.1724C49.1993 84.1152 49.1247 84.0731 49.0437 84.0495C48.1955 83.7612 47.3741 83.398 46.5892 82.9642L45.726 82.4732L45.6769 82.5186C45.9346 82.9106 46.1924 83.3067 46.4542 83.6946C46.5414 83.834 46.6444 83.9628 46.761 84.0784C47.5153 84.7745 48.3253 85.4066 49.1828 85.9683C49.7555 86.3396 50.3283 86.6698 50.8969 86.9958V86.9999ZM43.9424 61.1148L44.0324 61.1602L44.5151 60.7475C45.9207 59.5848 47.4572 58.5931 49.0928 57.793L49.4201 57.6238C49.506 57.5784 49.5305 57.5124 49.4651 57.4134C49.4269 57.4113 49.3887 57.4113 49.3505 57.4134C48.4827 57.6011 47.6307 57.8564 46.8019 58.1767C45.9446 58.5052 45.1222 58.9199 44.3474 59.4147C44.2451 59.4848 44.1428 59.5426 44.1224 59.687C44.061 60.1739 43.9955 60.6567 43.9342 61.1271L43.9424 61.1148ZM62.826 51.1494C62.7973 51.1164 62.7851 51.0958 62.7687 51.0875C62.0585 50.773 61.3164 50.5378 60.5555 50.386C60.5006 50.3772 60.4444 50.3811 60.3912 50.3976C60.338 50.414 60.2892 50.4425 60.2487 50.4809C59.406 51.0928 58.6226 51.7837 57.9087 52.5442C57.8818 52.5797 57.8572 52.6169 57.8351 52.6556C57.8964 52.6886 57.9496 52.7175 57.9987 52.7505C58.0706 52.807 58.1591 52.8377 58.2503 52.8377C58.3414 52.8377 58.43 52.807 58.5019 52.7505C58.6439 52.6696 58.7916 52.5993 58.9437 52.54C60.0598 52.0055 61.2207 51.5719 62.4128 51.2443C62.5519 51.2526 62.6705 51.2031 62.8178 51.1618L62.826 51.1494ZM47.9064 53.778V53.8522L48.201 53.8811C48.3319 53.8811 48.4669 53.8811 48.6101 53.9059C49.3178 54.009 50.0214 54.1205 50.7292 54.2195C50.8048 54.2348 50.8834 54.2216 50.9501 54.1824C51.216 53.9678 51.4737 53.7367 51.7683 53.4891C51.3865 52.9713 50.9637 52.4855 50.5042 52.0366C49.5748 52.5238 48.701 53.1118 47.8983 53.7903L47.9064 53.778ZM51.6292 51.5084L52.7992 52.9032L54.1328 52.441L54.6401 50.5181C53.6061 50.7457 52.5974 51.0775 51.6292 51.5084V51.5084ZM58.6492 50.1632H57.5651C57.2173 50.1632 56.7469 50.2086 56.3378 50.2375C56.2873 50.2322 56.2363 50.2414 56.1907 50.264C56.1451 50.2866 56.1067 50.3218 56.0801 50.3654C55.7494 50.958 55.5251 51.6047 55.4173 52.2759L56.4851 52.3296L58.6492 50.1632ZM42.7478 60.7228C42.6824 60.7764 42.6333 60.8053 42.5924 60.8465C42.306 61.1684 42.0196 61.4903 41.7292 61.808C41.5865 61.9558 41.4972 62.1476 41.4755 62.3527C41.4428 62.6869 41.3692 63.0212 41.3242 63.3554C41.2792 63.6897 41.271 63.9579 41.2464 64.2591C41.2706 64.2566 41.294 64.2491 41.3151 64.237C41.3362 64.2249 41.3546 64.2086 41.3692 64.189C41.8355 63.6071 42.306 63.0212 42.7642 62.4352C42.8167 62.3621 42.844 62.2737 42.8419 62.1835C42.8174 61.7131 42.7805 61.2427 42.7478 60.7228V60.7228ZM66.6101 50.6831C65.2709 50.1541 63.8675 49.8086 62.4373 49.6557C62.4728 49.6821 62.5113 49.7042 62.5519 49.7217C63.2728 49.9887 63.965 50.3288 64.6178 50.7368C64.6959 50.7823 64.7855 50.8039 64.8755 50.7987C65.436 50.7615 65.9923 50.7203 66.6101 50.6831V50.6831ZM79.57 67.4158C79.4023 68.01 79.2346 68.6042 79.0709 69.1984C79.0485 69.2668 79.0485 69.3406 79.0709 69.4089C79.2591 69.9288 79.4555 70.4446 79.6682 71.0058C79.7736 69.808 79.7407 68.6019 79.57 67.4117V67.4158ZM58.9396 55.6349C58.4732 55.6926 58.0601 55.7504 57.6469 55.7958C57.5078 55.7958 57.4382 55.8742 57.4301 56.0062C57.4219 56.1383 57.4301 56.1465 57.4301 56.2291L58.9396 56.5592V55.6349ZM68.3201 87.4373C66.96 88.0005 65.5613 88.4639 64.1351 88.8238C65.5908 88.5703 67.0012 88.1003 68.3201 87.429V87.4373ZM53.8464 60.013V58.8906C53.597 59.2048 53.417 59.5692 53.3187 59.9594L53.8464 60.013ZM58.461 57.6981L57.2623 57.4299V57.4835L58.146 58.152L58.461 57.6981ZM55.6546 59.7613C55.4542 59.4188 55.3151 59.0887 55.0778 58.7462V59.9057L55.6546 59.7613ZM56.7551 59.2785L57.1642 59.0062C56.8936 58.7165 56.5699 58.4824 56.211 58.317L56.7551 59.2785ZM51.7846 59.3982L52.0873 59.5715C52.2633 59.2372 52.4105 58.9401 52.5742 58.5853L51.7846 59.3982ZM51.1342 55.9072C51.3806 55.934 51.6298 55.9029 51.8623 55.8164C51.7678 55.7617 51.6658 55.7214 51.5596 55.6968C51.3183 55.6349 51.3183 55.6349 51.1464 55.8907L51.1342 55.9072ZM75.1969 56.8068C75.2214 57.2194 75.246 57.2483 75.6305 57.3597L75.1969 56.8068ZM55.2128 53.5386V53.6129C55.4255 53.7491 55.4869 53.7367 55.5932 53.5139L55.2128 53.5386ZM57.8187 54.562L58.2932 54.4918C58.1214 54.3185 58.1214 54.3185 57.831 54.5455L57.8187 54.562ZM51.2037 58.2098C50.9337 58.2882 50.9337 58.2882 50.9214 58.4738L51.2037 58.2098ZM53.6869 53.8522V53.9183L53.9528 53.8316V53.778L53.6869 53.8522Z"/>
</mask>
<path d="M117.967 95.6035C117.832 95.8758 117.697 96.1523 117.558 96.4288C115.104 101.045 112.638 105.661 110.162 110.277C110.113 110.368 110.068 110.463 110.01 110.549C109.933 110.678 109.826 110.786 109.699 110.865C109.571 110.943 109.427 110.989 109.278 110.999H10.9819C10.7856 111.007 10.5912 110.957 10.4227 110.855C10.2541 110.753 10.1186 110.604 10.0328 110.426C7.42831 105.636 4.81967 100.843 2.20695 96.045C2.07186 95.8341 2 95.5884 2 95.3373C2 95.0863 2.07186 94.8405 2.20695 94.6297C8.56149 83.5185 14.9038 72.4019 21.2337 61.2798C31.0001 44.1386 40.7637 26.9892 50.5246 9.83146C50.6541 9.5616 50.8621 9.33801 51.1209 9.19054C51.3796 9.04308 51.6768 8.97876 51.9728 9.00617C57.1273 9.03093 62.2778 9.00617 67.4323 9.00617H67.7391C67.9332 8.994 68.1266 9.0395 68.2953 9.13705C68.464 9.2346 68.6006 9.37991 68.6882 9.55499C69.04 10.174 69.3946 10.7902 69.7519 11.4036L100.025 63.8919C105.907 74.0924 111.794 84.2902 117.685 94.4852C117.804 94.6874 117.898 94.8979 118 95.1083L117.967 95.6035ZM115.345 96.3504H35.691C35.5469 96.3472 35.4053 96.3117 35.2764 96.2466C35.1475 96.1815 35.0346 96.0884 34.9457 95.9739C34.8569 95.8594 34.7944 95.7264 34.7626 95.5846C34.7309 95.4427 34.7308 95.2956 34.7624 95.1537C34.8114 94.9753 34.8843 94.8046 34.9792 94.6462C37.4992 90.2886 40.0233 85.9298 42.5514 81.5695L42.7151 81.2765L42.576 81.0537C40.4059 77.8082 39.1736 74.0178 39.0169 70.1063C38.9698 68.9505 39.0149 67.7927 39.1519 66.6442C39.3508 64.8988 39.7744 63.1871 40.4119 61.5522C41.6938 58.2647 43.7768 55.3563 46.4682 53.0959C49.1596 50.8355 52.3726 49.2961 55.8101 48.6199L56.2519 48.5209C55.941 47.8318 52.0178 40.9241 51.8419 40.7591C38.781 63.493 25.7146 86.2502 12.6428 109.031H108.12C108.182 109.025 108.243 109.025 108.305 109.031C108.525 109.068 108.632 108.953 108.714 108.771C110.865 104.733 113.02 100.697 115.177 96.664C115.243 96.5773 115.28 96.4865 115.345 96.3504V96.3504ZM10.9492 107.979L11.1497 107.649C13.6042 103.349 16.0683 99.0491 18.5419 94.7493C22.7528 87.418 26.9651 80.0854 31.1787 72.7513L50.9296 38.3657C50.9746 38.2873 51.0196 38.2048 51.0728 38.1264C51.1624 37.9902 51.2839 37.8785 51.4267 37.8012C51.5695 37.7239 51.729 37.6835 51.891 37.6835C52.053 37.6835 52.2125 37.7239 52.3553 37.8012C52.498 37.8785 52.6196 37.9902 52.7092 38.1264C52.7727 38.2202 52.8301 38.318 52.881 38.4194L58.2278 47.9597L58.4078 48.2609C63.5229 47.8995 68.5908 49.4507 72.6441 52.6184C76.7187 55.7552 79.52 60.2824 80.5238 65.3524C81.5276 70.4224 80.6649 75.6877 78.0973 80.1624H90.9141C77.7987 57.4312 64.6887 34.7083 51.5842 11.9937C51.4778 12.1753 51.4001 12.3073 51.3264 12.4394C36.4465 38.5597 21.5624 64.68 6.67422 90.8003C5.85604 92.2322 5.03785 93.6888 4.21967 95.1001C4.16392 95.1828 4.13411 95.2806 4.13411 95.3807C4.13411 95.4807 4.16392 95.5785 4.21967 95.6613C6.40149 99.6584 8.58331 103.66 10.7651 107.665C10.8183 107.752 10.8715 107.838 10.9492 107.979ZM73.7937 76.6178C72.8604 74.6811 71.6954 72.8671 70.3246 71.2163C68.6716 72.8529 66.8314 74.2852 64.8428 75.483L67.4937 81.3425C69.9155 80.1706 72.0919 78.7057 73.7937 76.6095V76.6178ZM66.3932 81.8088C65.526 79.8859 64.6587 77.9795 63.7832 76.0318C61.5915 77.089 59.2417 77.7736 56.8287 78.0579C57.2652 80.0649 57.8899 82.0255 58.6942 83.9133C60.6578 83.7441 65.2969 82.4567 66.3932 81.8006V81.8088ZM55.5073 69.5451C55.7243 72.0074 56.078 74.4554 56.5669 76.8777C58.8985 76.6279 61.1697 75.9732 63.2801 74.9424L60.0482 68.2576C58.5966 68.8826 57.0699 69.3127 55.5073 69.5368V69.5451ZM69.5391 70.2672C68.0152 68.4987 66.394 66.818 64.6832 65.2329C63.6122 66.2207 62.4186 67.064 61.1323 67.7418L64.3191 74.3441C65.3051 73.981 68.9173 71.1461 69.5391 70.2589V70.2672ZM57.3892 84.0247C57.0537 83.0509 56.706 82.1101 56.4114 81.1362C56.1169 80.1624 55.8673 79.1762 55.5932 78.2106C54.5173 78.1776 53.4455 78.1899 52.3778 78.0992C51.3101 78.0084 50.2628 77.8227 49.191 77.6865C49.191 77.897 49.191 78.1198 49.2196 78.3426C49.2646 79.007 49.2769 79.6796 49.3751 80.3398C49.5218 81.2456 49.7617 82.1334 50.091 82.989C50.1157 83.0552 50.1569 83.1139 50.2107 83.1595C50.2644 83.205 50.3289 83.2358 50.3978 83.249C51.3517 83.5221 52.3257 83.7181 53.3105 83.8349C54.051 83.9174 54.7955 83.9793 55.5401 84.0165C56.1619 84.0371 56.7755 84.0165 57.3892 84.0165V84.0247ZM50.0255 69.3222C49.5226 71.6413 49.2485 74.0049 49.2073 76.3784C49.2892 76.4032 49.3464 76.428 49.4037 76.4403C51.2826 76.8637 53.2065 77.0495 55.131 76.9933C55.2127 76.982 55.2935 76.9641 55.3723 76.9396C54.8978 74.5298 54.5542 72.1282 54.3333 69.6771C52.8862 69.7643 51.4342 69.642 50.0214 69.314L50.0255 69.3222ZM73.5482 64.3705C71.7679 62.9728 69.8271 61.7966 67.7678 60.8672C67.225 62.1609 66.4668 63.3513 65.526 64.387C67.2342 65.9803 68.8578 67.6635 70.39 69.4295C71.7348 67.9392 72.8031 66.2172 73.5441 64.3458L73.5482 64.3705ZM74.5014 65.2247C73.6795 67.1001 72.5588 68.8272 71.1837 70.3373C71.8055 71.1956 72.411 72.0085 73.0041 72.8627C73.5973 73.7169 74.0923 74.6123 74.6405 75.4954L74.7264 75.3798C75.9668 73.596 76.9656 71.6532 77.6964 69.6028C77.7216 69.5357 77.7314 69.4637 77.725 69.3923C77.7186 69.3208 77.6963 69.2517 77.6596 69.1902C76.9026 67.7831 75.9276 66.5071 74.7714 65.4104C74.6855 65.332 74.5996 65.2783 74.4973 65.1999L74.5014 65.2247ZM45.906 67.4117C45.8762 67.4414 45.8501 67.4747 45.8283 67.5107C45.7014 67.7666 45.5746 68.0265 45.456 68.2906C44.7156 69.8869 44.1953 71.578 43.9096 73.3166C43.8954 73.3917 43.9008 73.4691 43.9252 73.5415C43.9496 73.6138 43.9921 73.6785 44.0487 73.7293C45.1079 74.7858 46.4006 75.5735 47.8205 76.0277C47.8844 76.0347 47.9489 76.0347 48.0128 76.0277C48.0821 73.6677 48.3684 71.3194 48.8678 69.0128C47.799 68.6352 46.7975 68.0862 45.9019 67.3869L45.906 67.4117ZM68.3651 56.0269C68.3896 56.6706 68.451 57.2648 68.4264 57.8796C68.4019 58.4945 68.2791 59.1176 68.2014 59.7365C70.2272 60.6636 72.1475 61.8091 73.9287 63.1532C74.1381 62.3996 74.2617 61.6243 74.2969 60.8424C74.3283 59.9663 74.2941 59.089 74.1946 58.218C74.1903 58.1433 74.1659 58.0713 74.1241 58.0095C74.0823 57.9477 74.0247 57.8985 73.9573 57.8673C72.2518 57.0109 70.4375 56.3958 68.5655 56.0393C68.4988 56.0198 68.4302 56.0073 68.361 56.0021L68.3651 56.0269ZM66.8841 82.9601C64.4396 83.9614 61.8872 84.6705 59.2792 85.0728C59.316 85.1595 59.3323 85.2173 59.361 85.2709C59.8659 86.2389 60.4824 87.1434 61.1978 87.9655C61.2339 88.0091 61.2814 88.0415 61.335 88.059C61.3885 88.0766 61.4459 88.0785 61.5005 88.0645C62.0201 87.9696 62.5478 87.8953 63.0714 87.7922C64.7784 87.4616 66.4421 86.9341 68.0296 86.22C68.1089 86.183 68.1855 86.1403 68.2587 86.0921L66.8841 82.9601ZM67.9805 82.4773L69.3182 85.5804L69.4451 85.5309L69.6373 85.436C71.5143 84.397 73.2189 83.0688 74.6896 81.4993C74.768 81.4219 74.8184 81.3202 74.8328 81.2105V80.4471C74.7918 79.6552 74.6403 78.8731 74.3828 78.1239C74.3623 78.062 74.3296 78.0043 74.2887 77.9093C72.5029 79.8307 70.3575 81.3762 67.9764 82.4567L67.9805 82.4773ZM57.9742 85.2131C56.78 85.28 55.5828 85.2662 54.3905 85.1719C53.2151 85.072 52.0461 84.9067 50.8887 84.6767C51.0778 85.0354 51.2853 85.3839 51.5105 85.7207C52.0821 86.5915 52.814 87.3437 53.6664 87.9366C53.7995 88.0282 53.9524 88.0862 54.1123 88.1058C55.1392 88.2007 56.1578 88.3038 57.1969 88.341C58.0151 88.3699 58.8087 88.3121 59.6187 88.2873C59.6904 88.2749 59.7604 88.2541 59.8273 88.2254C59.098 87.286 58.475 86.2674 57.9701 85.1884L57.9742 85.2131ZM55.0737 61.1684C55.1146 63.5824 55.2046 65.9633 55.4092 68.336C56.391 68.2824 58.9314 67.5561 59.5001 67.1476L56.2682 60.8589L55.0737 61.1684ZM43.8237 75.1529L43.7419 75.19C43.7705 75.7223 43.791 76.2588 43.8278 76.7911C43.9114 77.807 44.1175 78.8089 44.4414 79.7745C44.5074 79.979 44.6311 80.1597 44.7974 80.2944C45.7722 81.1271 46.8554 81.8212 48.0169 82.3576C48.2296 82.4567 48.4505 82.5433 48.6714 82.6341L48.7205 82.5887C48.1069 80.8969 48.0455 79.1266 48.0005 77.3316C46.4689 76.9016 45.0443 76.1508 43.8196 75.1281L43.8237 75.1529ZM78.2282 67.8037C78.261 67.6964 78.2691 67.6593 78.2814 67.618C78.5771 66.4838 78.7715 65.3251 78.8623 64.1559C78.8823 63.9315 78.8629 63.7052 78.805 63.4875C78.5099 62.5234 78.1377 61.585 77.6923 60.6815C77.6375 60.5486 77.5552 60.429 77.4509 60.3307C76.8782 59.8521 76.2973 59.3817 75.7164 58.9154C75.6374 58.8626 75.5554 58.8143 75.471 58.7709C75.6362 60.5249 75.4569 62.2945 74.9432 63.9785C76.2193 65.0726 77.3252 66.3537 78.2241 67.779L78.2282 67.8037ZM54.2105 68.4268C54.2105 68.2989 54.1778 68.171 54.1696 68.0389C54.1246 67.3333 54.0755 66.6236 54.0346 65.9138C53.9937 65.2041 53.9528 64.4159 53.9283 63.6649C53.9283 63.0748 53.9283 62.4889 53.8996 61.8988C53.8996 61.676 53.8628 61.4573 53.8423 61.2303L53.2778 61.1643L52.7214 61.0859C51.7067 63.346 50.8962 65.6938 50.2996 68.1008C50.8478 68.3649 53.3883 68.6125 54.2105 68.4268V68.4268ZM59.1196 58.8576L64.671 63.5287C65.5464 62.6044 66.4996 61.0157 66.6428 60.3472C64.3865 59.3904 62.0617 58.6069 59.6882 58.0034L59.1196 58.8576ZM63.7791 64.4159C63.6962 64.3276 63.6088 64.2436 63.5173 64.1642C62.3964 63.1933 61.2686 62.2305 60.1341 61.2757C59.5614 60.7929 58.9682 60.339 58.3832 59.8686C58.3055 59.8067 58.2278 59.72 58.1132 59.7984L57.336 60.3472L60.5801 66.6566C61.7419 66.0589 62.818 65.3052 63.7791 64.4159V64.4159ZM67.0519 59.196C67.3403 58.0785 67.3403 56.9051 67.0519 55.7875C65.9064 55.4698 60.8337 55.3501 60.1669 55.6018V56.8728C62.5119 57.4871 64.8124 58.2633 67.0519 59.196V59.196ZM42.8337 72.1406H42.9074C43.1044 71.1548 43.3863 70.1883 43.7501 69.2521C44.1142 68.3278 44.5274 67.42 44.9283 66.4915C44.1639 65.6857 43.5733 64.7289 43.1937 63.6814C43.1691 63.7385 43.1404 63.7936 43.1078 63.8465C42.3896 64.707 41.7884 65.6604 41.3201 66.6813C41.2706 66.8128 41.2524 66.9541 41.2669 67.094C41.2669 67.3581 41.3324 67.6222 41.3692 67.8862C41.5375 69.134 41.9078 70.3455 42.4655 71.4721C42.5801 71.728 42.711 71.9384 42.8337 72.1406V72.1406ZM73.8469 56.3817C73.7282 56.0723 73.6341 55.7917 73.5155 55.5193C73.2444 54.8352 72.7931 54.2388 72.2105 53.7945C71.83 53.518 71.4619 53.225 71.0773 52.9692C70.925 52.8672 70.7634 52.7801 70.5946 52.7092C69.236 52.1564 67.7801 51.8882 66.3155 51.9211C66.2545 51.9279 66.1943 51.9403 66.1355 51.9582C66.8841 52.6958 67.4744 53.5807 67.8701 54.5579C67.9232 54.6858 68.0255 54.6982 68.1401 54.7188C69.3195 54.915 70.4821 55.2033 71.6173 55.5812C72.37 55.8247 73.0696 56.1094 73.8469 56.3983V56.3817ZM49.1378 67.7748C49.7514 65.334 50.5727 62.9511 51.5923 60.6526L50.9051 60.24C49.2057 62.0884 47.7131 64.1198 46.4542 66.2976C47.258 66.9459 48.1655 67.451 49.1378 67.7913V67.7748ZM75.1682 76.7663C75.571 77.767 75.8459 78.8153 75.9864 79.8859C76.0396 79.8529 76.0641 79.8446 76.0723 79.8323C76.1582 79.7291 76.2441 79.6218 76.3219 79.5187C77.1549 78.3836 77.9055 77.1894 78.5678 75.9452C78.8026 75.5237 78.9199 75.0461 78.9073 74.5628C78.9034 73.8519 78.8419 73.1426 78.7232 72.4418C78.6414 71.992 78.5269 71.5505 78.4205 71.0801C77.9173 72.0787 77.4469 73.0443 76.9437 73.9975C76.4169 74.9665 75.8236 75.8972 75.1682 76.7828V76.7663ZM45.5705 65.4228C46.8555 63.2434 48.3638 61.2062 50.0705 59.3445L49.8169 58.8906C49.8169 58.8659 49.7842 58.8411 49.7596 58.7998C47.6869 59.7689 45.7897 61.0814 44.1469 62.6828C44.3887 63.706 44.8778 64.653 45.5705 65.4393V65.4228ZM66.5119 54.4464C66.4926 54.3958 66.4708 54.3462 66.4464 54.2979C65.9838 53.483 65.3683 52.7668 64.6341 52.1893C64.5764 52.1454 64.5101 52.1143 64.4396 52.0979C64.3691 52.0816 64.296 52.0804 64.2251 52.0944C63.1388 52.2881 62.0731 52.5852 61.0423 52.9816C60.4614 53.2044 59.8969 53.4561 59.3037 53.7037C59.4387 53.9059 59.5573 54.0751 59.6678 54.2443C59.6944 54.282 59.7316 54.3109 59.7746 54.3271C59.8177 54.3433 59.8645 54.3461 59.9091 54.335C60.5596 54.302 61.2101 54.269 61.8646 54.2525C62.5192 54.236 63.0919 54.2525 63.7055 54.2525C64.2046 54.2525 64.6996 54.3062 65.1987 54.3392C65.6119 54.3969 66.0373 54.4258 66.5119 54.463V54.4464ZM40.461 69.4708H40.3833C40.3304 69.7615 40.2935 70.0549 40.2728 70.3497C40.2715 70.678 40.2906 71.006 40.3301 71.3318C40.4006 72.1519 40.5374 72.9647 40.7392 73.7623C41.1191 75.1889 41.7375 76.5398 42.5678 77.7567C42.6087 77.8186 42.6619 77.8681 42.7478 77.9712C42.7478 77.7938 42.7478 77.6824 42.7192 77.5586C42.666 76.9273 42.5924 76.2918 42.5678 75.6563C42.5678 75.1859 42.6005 74.7114 42.6169 74.2409C42.632 74.1551 42.63 74.0672 42.6111 73.9822C42.5921 73.8971 42.5565 73.8168 42.5064 73.7458C41.6683 72.6762 41.0406 71.4549 40.6574 70.1475C40.5755 69.9247 40.5183 69.6977 40.461 69.4708V69.4708ZM50.0542 55.3419C49.9911 55.3235 49.9269 55.3097 49.8619 55.3006C49.2769 55.2305 48.6878 55.1727 48.1028 55.0984C47.6247 55.0606 47.1437 55.0827 46.671 55.1644C46.6006 55.1732 46.5326 55.1963 46.4714 55.2325C46.4102 55.2687 46.357 55.3172 46.3151 55.3749C45.7545 56.0435 45.2714 56.7745 44.8751 57.5537C44.8445 57.6286 44.8199 57.7059 44.8014 57.7847C45.2555 57.5784 45.6687 57.3721 46.0901 57.1988C47.1879 56.749 48.3264 56.4077 49.4896 56.1796C49.5866 56.1688 49.6765 56.1234 49.7433 56.0516C49.8701 55.8288 49.9396 55.5895 50.046 55.3419H50.0542ZM54.1451 57.2896C54.5141 57.3075 54.8818 57.2329 55.2152 57.0723C55.5487 56.9117 55.8374 56.6702 56.0555 56.3694C56.1558 56.2533 56.2236 56.1125 56.252 55.9613C56.2804 55.8101 56.2684 55.6539 56.2171 55.509C56.1659 55.364 56.0773 55.2354 55.9605 55.1364C55.8436 55.0374 55.7027 54.9716 55.5523 54.9457C55.0268 54.7936 54.4632 54.8543 53.9814 55.1149C53.6089 55.2798 53.3061 55.5721 53.1264 55.9402C53.0632 56.0439 53.0235 56.1604 53.0102 56.2814C52.9968 56.4024 53.0102 56.5248 53.0493 56.64C53.0884 56.7551 53.1523 56.8602 53.2363 56.9475C53.3204 57.0348 53.4226 57.1023 53.5355 57.1451C53.7353 57.2058 53.939 57.2527 54.1451 57.2854V57.2896ZM50.8969 86.9999L50.946 86.9421C50.3318 86.1535 49.814 85.2931 49.4037 84.3796C49.3727 84.3005 49.3241 84.2296 49.2617 84.1724C49.1993 84.1152 49.1247 84.0731 49.0437 84.0495C48.1955 83.7612 47.3741 83.398 46.5892 82.9642L45.726 82.4732L45.6769 82.5186C45.9346 82.9106 46.1924 83.3067 46.4542 83.6946C46.5414 83.834 46.6444 83.9628 46.761 84.0784C47.5153 84.7745 48.3253 85.4066 49.1828 85.9683C49.7555 86.3396 50.3283 86.6698 50.8969 86.9958V86.9999ZM43.9424 61.1148L44.0324 61.1602L44.5151 60.7475C45.9207 59.5848 47.4572 58.5931 49.0928 57.793L49.4201 57.6238C49.506 57.5784 49.5305 57.5124 49.4651 57.4134C49.4269 57.4113 49.3887 57.4113 49.3505 57.4134C48.4827 57.6011 47.6307 57.8564 46.8019 58.1767C45.9446 58.5052 45.1222 58.9199 44.3474 59.4147C44.2451 59.4848 44.1428 59.5426 44.1224 59.687C44.061 60.1739 43.9955 60.6567 43.9342 61.1271L43.9424 61.1148ZM62.826 51.1494C62.7973 51.1164 62.7851 51.0958 62.7687 51.0875C62.0585 50.773 61.3164 50.5378 60.5555 50.386C60.5006 50.3772 60.4444 50.3811 60.3912 50.3976C60.338 50.414 60.2892 50.4425 60.2487 50.4809C59.406 51.0928 58.6226 51.7837 57.9087 52.5442C57.8818 52.5797 57.8572 52.6169 57.8351 52.6556C57.8964 52.6886 57.9496 52.7175 57.9987 52.7505C58.0706 52.807 58.1591 52.8377 58.2503 52.8377C58.3414 52.8377 58.43 52.807 58.5019 52.7505C58.6439 52.6696 58.7916 52.5993 58.9437 52.54C60.0598 52.0055 61.2207 51.5719 62.4128 51.2443C62.5519 51.2526 62.6705 51.2031 62.8178 51.1618L62.826 51.1494ZM47.9064 53.778V53.8522L48.201 53.8811C48.3319 53.8811 48.4669 53.8811 48.6101 53.9059C49.3178 54.009 50.0214 54.1205 50.7292 54.2195C50.8048 54.2348 50.8834 54.2216 50.9501 54.1824C51.216 53.9678 51.4737 53.7367 51.7683 53.4891C51.3865 52.9713 50.9637 52.4855 50.5042 52.0366C49.5748 52.5238 48.701 53.1118 47.8983 53.7903L47.9064 53.778ZM51.6292 51.5084L52.7992 52.9032L54.1328 52.441L54.6401 50.5181C53.6061 50.7457 52.5974 51.0775 51.6292 51.5084V51.5084ZM58.6492 50.1632H57.5651C57.2173 50.1632 56.7469 50.2086 56.3378 50.2375C56.2873 50.2322 56.2363 50.2414 56.1907 50.264C56.1451 50.2866 56.1067 50.3218 56.0801 50.3654C55.7494 50.958 55.5251 51.6047 55.4173 52.2759L56.4851 52.3296L58.6492 50.1632ZM42.7478 60.7228C42.6824 60.7764 42.6333 60.8053 42.5924 60.8465C42.306 61.1684 42.0196 61.4903 41.7292 61.808C41.5865 61.9558 41.4972 62.1476 41.4755 62.3527C41.4428 62.6869 41.3692 63.0212 41.3242 63.3554C41.2792 63.6897 41.271 63.9579 41.2464 64.2591C41.2706 64.2566 41.294 64.2491 41.3151 64.237C41.3362 64.2249 41.3546 64.2086 41.3692 64.189C41.8355 63.6071 42.306 63.0212 42.7642 62.4352C42.8167 62.3621 42.844 62.2737 42.8419 62.1835C42.8174 61.7131 42.7805 61.2427 42.7478 60.7228V60.7228ZM66.6101 50.6831C65.2709 50.1541 63.8675 49.8086 62.4373 49.6557C62.4728 49.6821 62.5113 49.7042 62.5519 49.7217C63.2728 49.9887 63.965 50.3288 64.6178 50.7368C64.6959 50.7823 64.7855 50.8039 64.8755 50.7987C65.436 50.7615 65.9923 50.7203 66.6101 50.6831V50.6831ZM79.57 67.4158C79.4023 68.01 79.2346 68.6042 79.0709 69.1984C79.0485 69.2668 79.0485 69.3406 79.0709 69.4089C79.2591 69.9288 79.4555 70.4446 79.6682 71.0058C79.7736 69.808 79.7407 68.6019 79.57 67.4117V67.4158ZM58.9396 55.6349C58.4732 55.6926 58.0601 55.7504 57.6469 55.7958C57.5078 55.7958 57.4382 55.8742 57.4301 56.0062C57.4219 56.1383 57.4301 56.1465 57.4301 56.2291L58.9396 56.5592V55.6349ZM68.3201 87.4373C66.96 88.0005 65.5613 88.4639 64.1351 88.8238C65.5908 88.5703 67.0012 88.1003 68.3201 87.429V87.4373ZM53.8464 60.013V58.8906C53.597 59.2048 53.417 59.5692 53.3187 59.9594L53.8464 60.013ZM58.461 57.6981L57.2623 57.4299V57.4835L58.146 58.152L58.461 57.6981ZM55.6546 59.7613C55.4542 59.4188 55.3151 59.0887 55.0778 58.7462V59.9057L55.6546 59.7613ZM56.7551 59.2785L57.1642 59.0062C56.8936 58.7165 56.5699 58.4824 56.211 58.317L56.7551 59.2785ZM51.7846 59.3982L52.0873 59.5715C52.2633 59.2372 52.4105 58.9401 52.5742 58.5853L51.7846 59.3982ZM51.1342 55.9072C51.3806 55.934 51.6298 55.9029 51.8623 55.8164C51.7678 55.7617 51.6658 55.7214 51.5596 55.6968C51.3183 55.6349 51.3183 55.6349 51.1464 55.8907L51.1342 55.9072ZM75.1969 56.8068C75.2214 57.2194 75.246 57.2483 75.6305 57.3597L75.1969 56.8068ZM55.2128 53.5386V53.6129C55.4255 53.7491 55.4869 53.7367 55.5932 53.5139L55.2128 53.5386ZM57.8187 54.562L58.2932 54.4918C58.1214 54.3185 58.1214 54.3185 57.831 54.5455L57.8187 54.562ZM51.2037 58.2098C50.9337 58.2882 50.9337 58.2882 50.9214 58.4738L51.2037 58.2098ZM53.6869 53.8522V53.9183L53.9528 53.8316V53.778L53.6869 53.8522Z" fill="black" stroke="white" stroke-width="2" mask="url(#path-1-inside-1_1_40)"/>
</svg>
